<svg xmlns="http://www.w3.org/2000/svg" width="1065" height="900" viewBox="0 0 1065 900" fill="none"><path opacity="0.1" fill-rule="evenodd" clip-rule="evenodd" d="M755.54 -540.63C964.503 -513.839 1031.7 -263.992 1163.17 -99.3708C1294.85 65.5161 1522.31 186.308 1503.95 396.521C1483.97 625.204 1298.82 834.927 1076.55 892.283C880.126 942.97 734.3 736.93 555.403 641.291C393.842 554.919 177.691 542.682 106.703 373.795C24.661 178.609 69.2094 -51.2437 191.732 -223.919C322.97 -408.876 530.595 -569.471 755.54 -540.63Z" fill="#F47C7C"></path><path opacity="0.32" fill-rule="evenodd" clip-rule="evenodd" d="M691.545 -668.63C900.508 -641.839 967.708 -391.992 1099.17 -227.371C1230.85 -62.4839 1458.31 58.308 1439.95 268.521C1419.98 497.204 1234.83 706.927 1012.55 764.283C816.131 814.97 670.305 608.93 491.408 513.291C329.847 426.919 113.695 414.682 42.7078 245.795C-39.3344 50.6088 5.21406 -179.244 127.737 -351.919C258.975 -536.876 466.599 -697.471 691.545 -668.63Z" stroke="#F47C7C"></path></svg>